<?xml version="1.0" encoding="UTF-8"?>
<svg width="auto" height="30px" viewBox="0 0 400 110" version="1.1" xmlns="http://www.w3.org/2000/svg" xmlns:xlink="http://www.w3.org/1999/xlink">
    <!-- Generator: Sketch 41.2 (35397) - http://www.bohemiancoding.com/sketch -->
    <title>Combined Shape</title>
    <desc>Created with Sketch.</desc>
    <defs></defs>
    <g id="Page-1" stroke="none" stroke-width="1" fill="none" fill-rule="evenodd">
        <g id="Artboard-2-Copy-3" transform="translate(-200.000000, -245.000000)" fill="#333333">
            <path d="M288.479503,326.440162 L300.624661,269.320487 L317.135359,269.320487 L315.680179,276.404665 C316.687616,275.512166 317.713694,274.638273 318.758444,273.782961 C319.803194,272.92765 320.894569,272.174614 322.0326,271.523834 C323.170631,270.873053 324.355285,270.343139 325.586598,269.934077 C326.81791,269.525015 328.123828,269.320487 329.50439,269.320487 C330.810328,269.320487 331.95767,269.562202 332.946451,270.045639 C333.935233,270.529076 334.765423,271.161254 335.437048,271.942191 C336.108673,272.723128 336.612384,273.634207 336.948197,274.675456 C337.284009,275.716706 337.451913,276.795126 337.451913,277.910751 C337.451913,278.914812 337.284009,279.909562 336.948197,280.89503 C336.612384,281.880499 336.099345,282.763688 335.409064,283.544625 C334.718783,284.325562 333.85128,284.967036 332.80653,285.469067 C331.76178,285.971098 330.549142,286.22211 329.16858,286.22211 C328.086517,286.22211 327.256327,286.036175 326.677983,285.6643 C326.099639,285.292425 325.661224,284.827589 325.362724,284.269777 C325.064224,283.711965 324.84968,283.107677 324.719086,282.456897 C324.588493,281.806116 324.448573,281.201828 324.299323,280.644016 C324.150073,280.086204 323.954185,279.621368 323.711654,279.249493 C323.469123,278.877618 323.068019,278.691684 322.508332,278.691684 C320.754644,278.691684 319.280823,279.091443 318.086823,279.890974 C316.892823,280.690504 315.586905,281.741035 314.16903,283.042596 L304.990201,326.440162 L288.479503,326.440162 Z M363.659761,319.700024 C363.64557,319.715534 363.631374,319.731009 363.617172,319.74645 C362.180641,321.308324 360.706819,322.572679 359.195663,323.539554 C357.684507,324.506428 356.220013,325.250166 354.802138,325.770791 C353.384263,326.291416 352.031706,326.644691 350.744424,326.830629 C349.457143,327.016566 348.309801,327.109533 347.302364,327.109533 C345.585989,327.109533 343.981575,326.849225 342.489075,326.3286 C340.996575,325.807976 339.699985,324.989864 338.599267,323.874239 C337.498548,322.758615 336.631045,321.345512 335.996733,319.634888 C335.36242,317.924265 335.045269,315.860391 335.045269,313.443205 C335.045269,312.401956 335.119893,311.258458 335.269143,310.012677 C335.418393,308.766897 335.642264,307.418871 335.940764,305.96856 L343.720382,269.320487 L360.23108,269.320487 L352.003715,308.144016 C351.817152,308.776203 351.695889,309.399084 351.63992,310.012677 C351.583951,310.626271 351.555967,311.230558 351.555967,311.825558 C351.555967,313.424619 351.929087,314.53093 352.675337,315.144523 C353.421587,315.758117 354.596913,316.064909 356.20135,316.064909 C357.320725,316.064909 358.412099,315.813897 359.475505,315.311866 C360.538912,314.809835 361.51835,314.112581 362.41385,313.220081 C363.30935,312.327582 364.111557,311.258458 364.820494,310.012677 C365.529432,308.766897 366.107767,307.418871 366.555517,305.96856 L366.582807,305.96856 L375.286598,265.081136 L391.797296,265.081136 L389.950337,273.6714 C391.629399,272.258276 393.550964,271.086888 395.715089,270.157201 C397.879214,269.227514 400.416426,268.762677 403.326801,268.762677 C405.267051,268.762677 407.095336,269.06947 408.811711,269.683063 C410.528086,270.296656 412.011235,271.300703 413.261204,272.695233 C414.511173,274.089764 415.499939,275.939813 416.227533,278.245436 C416.955127,280.55106 417.318918,283.395859 417.318918,286.779919 C417.318918,289.345855 417.141686,292.125577 416.787218,295.119168 C416.432749,298.11276 415.82643,301.106307 414.968242,304.099899 C414.110055,307.09349 412.981369,309.975476 411.58215,312.745943 C410.182931,315.51641 408.438598,317.96145 406.349098,320.081136 C404.259598,322.200822 401.787682,323.902123 398.933276,325.185091 C396.07887,326.468059 392.804747,327.109533 389.11081,327.109533 C387.655622,327.109533 386.387016,326.997973 385.304954,326.774848 C384.222891,326.551723 383.299421,326.254228 382.534515,325.882353 C381.769608,325.510478 381.135305,325.073532 380.631587,324.571501 C380.127868,324.06947 379.708109,323.55815 379.372296,323.037525 L373.439638,350.872211 L356.145382,355 L363.659761,319.700024 Z M364.26081,254.148073 C364.26081,255.412447 364.018282,256.593132 363.533219,257.690162 C363.048157,258.787193 362.38587,259.735459 361.546339,260.53499 C360.706808,261.334521 359.736697,261.966698 358.635978,262.431542 C357.53526,262.896385 356.350606,263.128803 355.081981,263.128803 C353.813356,263.128803 352.628702,262.896385 351.527983,262.431542 C350.427264,261.966698 349.466482,261.334521 348.645607,260.53499 C347.824732,259.735459 347.181101,258.787193 346.714695,257.690162 C346.248288,256.593132 346.015089,255.412447 346.015089,254.148073 C346.015089,252.883699 346.248288,251.703014 346.714695,250.605984 C347.181101,249.508953 347.824732,248.542093 348.645607,247.705375 C349.466482,246.868657 350.427264,246.208589 351.527983,245.725152 C352.628702,245.241715 353.813356,245 355.081981,245 C356.350606,245 357.53526,245.241715 358.635978,245.725152 C359.736697,246.208589 360.706808,246.868657 361.546339,247.705375 C362.38587,248.542093 363.048157,249.508953 363.533219,250.605984 C364.018282,251.703014 364.26081,252.883699 364.26081,254.148073 Z M381.219256,314.558824 C381.443131,315.191011 381.900202,315.786001 382.590483,316.343813 C383.280764,316.901626 384.278859,317.180527 385.584796,317.180527 C387.599671,317.180527 389.390644,316.669207 390.957769,315.646552 C392.524894,314.623896 393.905436,313.266574 395.099436,311.574544 C396.293436,309.882514 397.300858,307.958091 398.121733,305.801217 C398.942608,303.644344 399.614223,301.431722 400.136598,299.163286 C400.658973,296.89485 401.04142,294.654338 401.283952,292.441684 C401.526483,290.229029 401.647747,288.230232 401.647747,286.445233 C401.647747,284.251172 401.442531,282.521981 401.032094,281.257606 C400.621656,279.993232 400.127273,279.044966 399.548929,278.412779 C398.970585,277.780592 398.34561,277.380832 397.673985,277.213489 C397.00236,277.046145 396.405369,276.962475 395.882994,276.962475 C394.577057,276.962475 393.205843,277.436608 391.769312,278.384888 C390.332781,279.333169 389.073503,280.736975 387.99144,282.596349 L381.219256,314.558824 Z M409.763175,355 L428.904391,265.081136 L445.415089,265.081136 L443.56813,273.6714 C445.247192,272.258276 447.168757,271.086888 449.332882,270.157201 C451.497007,269.227514 454.034219,268.762677 456.944594,268.762677 C458.884844,268.762677 460.713129,269.06947 462.429504,269.683063 C464.145879,270.296656 465.629028,271.300703 466.878997,272.695233 C468.128966,274.089764 469.117732,275.939813 469.845326,278.245436 C470.57292,280.55106 470.936711,283.395859 470.936711,286.779919 C470.936711,289.345855 470.759479,292.125577 470.405011,295.119168 C470.050542,298.11276 469.444223,301.106307 468.586035,304.099899 C467.727848,307.09349 466.599162,309.975476 465.199943,312.745943 C463.800724,315.51641 462.056391,317.96145 459.966891,320.081136 C457.877391,322.200822 455.405475,323.902123 452.551069,325.185091 C449.696663,326.468059 446.42254,327.109533 442.728603,327.109533 C441.273415,327.109533 440.004809,326.997973 438.922747,326.774848 C437.840684,326.551723 436.917214,326.254228 436.152308,325.882353 C435.387401,325.510478 434.753098,325.073532 434.24938,324.571501 C433.745661,324.06947 433.325902,323.55815 432.990089,323.037525 L427.057432,350.872211 L409.763175,355 Z M434.837049,314.558824 C435.060924,315.191011 435.517995,315.786001 436.208276,316.343813 C436.898557,316.901626 437.896652,317.180527 439.202589,317.180527 C441.217464,317.180527 443.008437,316.669207 444.575562,315.646552 C446.142687,314.623896 447.523229,313.266574 448.717229,311.574544 C449.911229,309.882514 450.918651,307.958091 451.739526,305.801217 C452.560401,303.644344 453.232016,301.431722 453.754391,299.163286 C454.276766,296.89485 454.659213,294.654338 454.901745,292.441684 C455.144276,290.229029 455.26554,288.230232 455.26554,286.445233 C455.26554,284.251172 455.060324,282.521981 454.649887,281.257606 C454.239449,279.993232 453.745066,279.044966 453.166722,278.412779 C452.588378,277.780592 451.963403,277.380832 451.291778,277.213489 C450.620154,277.046145 450.023162,276.962475 449.500787,276.962475 C448.19485,276.962475 446.823636,277.436608 445.387105,278.384888 C443.950574,279.333169 442.691296,280.736975 441.609233,282.596349 L434.837049,314.558824 Z M463.380968,355 L482.522184,265.081136 L499.032882,265.081136 L497.185923,273.6714 C498.864985,272.258276 500.78655,271.086888 502.950675,270.157201 C505.1148,269.227514 507.652012,268.762677 510.562387,268.762677 C512.502637,268.762677 514.330922,269.06947 516.047297,269.683063 C517.763672,270.296656 519.246821,271.300703 520.49679,272.695233 C521.746759,274.089764 522.735525,275.939813 523.463119,278.245436 C524.190713,280.55106 524.554504,283.395859 524.554504,286.779919 C524.554504,289.345855 524.377272,292.125577 524.022804,295.119168 C523.668335,298.11276 523.062016,301.106307 522.203828,304.099899 C521.345641,307.09349 520.216955,309.975476 518.817736,312.745943 C517.418517,315.51641 515.674184,317.96145 513.584684,320.081136 C511.495184,322.200822 509.023268,323.902123 506.168862,325.185091 C503.314456,326.468059 500.040333,327.109533 496.346396,327.109533 C494.891208,327.109533 493.622602,326.997973 492.54054,326.774848 C491.458478,326.551723 490.535007,326.254228 489.770101,325.882353 C489.005195,325.510478 488.370892,325.073532 487.867173,324.571501 C487.363454,324.06947 486.943695,323.55815 486.607882,323.037525 L480.675225,350.872211 L463.380968,355 Z M488.454842,314.558824 C488.678717,315.191011 489.135788,315.786001 489.826069,316.343813 C490.51635,316.901626 491.514445,317.180527 492.820382,317.180527 C494.835257,317.180527 496.62623,316.669207 498.193355,315.646552 C499.76048,314.623896 501.141022,313.266574 502.335022,311.574544 C503.529022,309.882514 504.536444,307.958091 505.357319,305.801217 C506.178194,303.644344 506.849809,301.431722 507.372184,299.163286 C507.894559,296.89485 508.277007,294.654338 508.519538,292.441684 C508.762069,290.229029 508.883333,288.230232 508.883333,286.445233 C508.883333,284.251172 508.678117,282.521981 508.26768,281.257606 C507.857242,279.993232 507.362859,279.044966 506.784515,278.412779 C506.206172,277.780592 505.581197,277.380832 504.909572,277.213489 C504.237947,277.046145 503.640956,276.962475 503.118581,276.962475 C501.812643,276.962475 500.441429,277.436608 499.004898,278.384888 C497.568367,279.333169 496.309089,280.736975 495.227026,282.596349 L488.454842,314.558824 Z M557.494852,316.720375 C556.709974,317.844594 555.906794,318.853283 555.085304,319.74645 C553.648773,321.308324 552.174951,322.572679 550.663795,323.539554 C549.152639,324.506428 547.688145,325.250166 546.27027,325.770791 C544.852395,326.291416 543.499837,326.644691 542.212556,326.830629 C540.925275,327.016566 539.777933,327.109533 538.770495,327.109533 C537.05412,327.109533 535.449707,326.849225 533.957207,326.3286 C532.464707,325.807976 531.168117,324.989864 530.067398,323.874239 C528.96668,322.758615 528.099177,321.345512 527.464864,319.634888 C526.830552,317.924265 526.513401,315.860391 526.513401,313.443205 C526.513401,312.401956 526.588024,311.258458 526.737274,310.012677 C526.886524,308.766897 527.110396,307.418871 527.408896,305.96856 L539.665991,248.737323 L556.624437,246.450304 L543.471847,308.144016 C543.285284,308.776203 543.16402,309.399084 543.108052,310.012677 C543.052083,310.626271 543.024099,311.230558 543.024099,311.825558 C543.024099,313.424619 543.397218,314.53093 544.143468,315.144523 C544.889718,315.758117 546.065044,316.064909 547.669482,316.064909 C548.788857,316.064909 549.880231,315.813897 550.943637,315.311866 C552.007043,314.809835 552.986482,314.112581 553.881982,313.220081 C554.777482,312.327582 555.579688,311.258458 556.288626,310.012677 C556.329479,309.940889 556.369897,309.868761 556.409883,309.796294 C556.403669,309.527873 556.400563,309.256018 556.400563,308.98073 C556.400563,306.786669 556.624434,304.257959 557.072184,301.394523 C557.519934,298.531088 558.228861,295.593321 559.198986,292.581136 C560.169111,289.56895 561.456373,286.612591 563.060811,283.711968 C564.665248,280.811345 566.605469,278.217557 568.881531,275.930527 C571.157594,273.643498 573.825397,271.802745 576.885022,270.408215 C579.944647,269.013685 583.433314,268.31643 587.351126,268.31643 C589.925688,268.31643 592.024485,268.623222 593.647579,269.236815 C595.270673,269.850409 596.557934,270.659224 597.509403,271.663286 C598.460872,272.667348 599.113831,273.829439 599.4683,275.149594 C599.822768,276.46975 600,277.836369 600,279.249493 C600,282.559178 599.272417,285.636396 597.81723,288.481237 C596.362042,291.326079 594.412493,293.808306 591.968525,295.927992 C589.524556,298.047678 586.716833,299.758276 583.54527,301.059838 C580.373708,302.361399 577.071601,303.123731 573.638851,303.346856 C573.564226,303.979043 573.49893,304.58333 573.442962,305.159736 C573.386993,305.736142 573.359009,306.284649 573.359009,306.805274 C573.359009,308.62746 573.545569,310.152124 573.918694,311.37931 C574.291819,312.606497 574.79553,313.582654 575.429842,314.307809 C576.064155,315.032965 576.810393,315.544285 577.668581,315.841785 C578.526768,316.139285 579.459567,316.288032 580.467004,316.288032 C581.586379,316.288032 582.752377,316.120691 583.965034,315.786004 C585.17769,315.451317 586.371672,315.005074 587.547016,314.447262 C588.722359,313.88945 589.869702,313.247975 590.989077,312.522819 C592.108452,311.797664 593.115874,311.026035 594.011374,310.207911 C593.414374,313.517596 592.481575,316.250834 591.21295,318.407708 C589.944325,320.564581 588.433192,322.293773 586.679504,323.595335 C584.925817,324.896896 582.985596,325.807976 580.858784,326.3286 C578.731971,326.849225 576.511911,327.109533 574.198536,327.109533 C571.512036,327.109533 569.077432,326.765554 566.894651,326.077586 C564.71187,325.389618 562.846273,324.320494 561.297804,322.870183 C559.749335,321.419871 558.546025,319.551228 557.687838,317.264199 C557.620898,317.085809 557.55657,316.904534 557.494852,316.720375 Z M574.42241,297.880325 C576.623847,297.80595 578.731972,297.220256 580.746847,296.123225 C582.761722,295.026195 584.543367,293.613092 586.091836,291.883874 C587.640304,290.154657 588.871598,288.174453 589.785754,285.943205 C590.699911,283.711956 591.156982,281.406368 591.156982,279.026369 C591.156982,277.613245 590.951766,276.479044 590.541329,275.623732 C590.130891,274.76842 589.384653,274.340771 588.30259,274.340771 C586.847403,274.340771 585.420221,275.056619 584.021002,276.488337 C582.621783,277.920054 581.315866,279.770104 580.103209,282.03854 C578.890553,284.306976 577.789851,286.835686 576.80107,289.624746 C575.812288,292.413807 575.01941,295.165639 574.42241,297.880325 Z M250.304908,323.757025 C257.567684,325.255032 264.267784,327.780752 270.199448,331.085857 L265.251632,354.714471 L268.213773,352.278476 L289.31726,253.327047 L286.902241,253.327047 L284.50157,264.503223 C279.283418,261.911677 273.536867,259.906268 267.386852,258.637777 C257.870074,256.674864 248.496251,256.705307 239.922484,258.401416 L238.577045,264.543649 C238.011653,264.440855 237.445615,264.331065 236.879072,264.21421 C228.435218,262.472596 220.751925,259.341837 214.152548,255.212177 L200,319.82175 C207.12159,324.755154 215.672243,328.482667 225.189021,330.44558 C232.739173,332.002861 240.199349,332.305509 247.24143,331.517154 L248.997628,323.499714 C249.433046,323.58132 249.868827,323.66708 250.304908,323.757025 Z" id="Combined-Shape"></path>
        </g>
    </g>
</svg>
